<svg width="40" height="37" viewBox="0 0 40 37" fill="none" xmlns="http://www.w3.org/2000/svg">
<path d="M2.17688 2.4169C2.32438 4.03942 3.15799 5.45995 4.01343 6.80421C6.14694 10.1569 8.55173 13.3871 11.1964 16.3543C16.3355 22.1201 23.1043 26.1656 30.4189 28.4755C31.3757 28.7776 33.2937 29.0734 34.0512 29.6794C34.9462 30.3954 37.3034 29.3275 37.8059 30.3324" stroke="black" stroke-width="3" stroke-linecap="round"/>
<path d="M37.8059 30.3324C36.6917 28.1041 35.2846 26.1849 34.0512 24.0882C33.604 23.3279 33.0709 23.6186 33.0309 22.5373C32.9956 21.5859 32.2963 20.9783 32.2963 20.0478" stroke="black" stroke-width="3" stroke-linecap="round"/>
<path d="M37.4386 29.9651C34.1111 30.6307 31.0188 33.0147 27.5212 33.5566C26.0884 33.7786 22.1746 33.8425 21.277 34.7402" stroke="black" stroke-width="3" stroke-linecap="round"/>
</svg>
